# xmcd CD database file
#
# Track frame offsets:
#	150
#	16452
#	30985
#	42037
#	53460
#	65742
#	78207
#	93830
#	106000
#	118952
#	128477
#	141220
#	150920
#	163452
#	180727
#	193372
#	205335
#	216190
#	233490
#	246705
#
# Disc length: 3426 seconds
#
# Revision: 2
# Processed by: cddbd v1.4b41PL1 Copyright (c) Steve Scherf et al.
# Submitted via: Feurio! 1.50.2ß - http://www.feurio.com
#
DISCID=0f0d6014
DTITLE=Various Artist - Unchained Melodies
DYEAR=1900
DGENRE=
TTITLE0=The Rightous Brothers - Unchained melody
TTITLE1=The Walker Brothers - Make it easy on yourself
TTITLE2=Billy Fury - Halfway to paradise
TTITLE3=Ricky Nelson - Poor little fool
TTITLE4=Pasty Cline - Crazy
TTITLE5=Cliff Richard - I'm looking out the window
TTITLE6=Aretha Franklin - I say a little prayer
TTITLE7=Otis Redding - Sittin' on the dock of the bay
TTITLE8=Percy Sledge - When a man loves a woman
TTITLE9=Sam Cooke - Wonderful world
TTITLE10=Bobby Vinton - Blue velvet
TTITLE11=Bobby Vee - Run to him
TTITLE12=Roy Orbison - Crying
TTITLE13=Scott Walker - Joanna
TTITLE14=Dusty Springfield - You don't have to say you love me
TTITLE15=Ricky Valence - Tell Laura I love her
TTITLE16=Marty Wilde - Sea of love
TTITLE17=The Rightous Brothers - You've lost that loving feeling
TTITLE18=Ben E King - Stand by me
TTITLE19=Louis Armstrong - What a wonderful world
EXTD=
EXTT0=
EXTT1=
EXTT2=
EXTT3=
EXTT4=
EXTT5=
EXTT6=
EXTT7=
EXTT8=
EXTT9=
EXTT10=
EXTT11=
EXTT12=
EXTT13=
EXTT14=
EXTT15=
EXTT16=
EXTT17=
EXTT18=
EXTT19=
PLAYORDER=
